<svg xmlns="http://www.w3.org/2000/svg" xmlns:xlink="http://www.w3.org/1999/xlink" viewBox="0 0 430 430" width="430" height="430" preserveAspectRatio="xMidYMid meet" style="width: 100%; height: 100%; transform: translate3d(0px, 0px, 0px); content-visibility: visible;"><defs><clipPath id="__lottie_element_2"><rect width="430" height="430" x="0" y="0"></rect></clipPath><clipPath id="__lottie_element_5"><path d="M0,0 L430,0 L430,430 L0,430z"></path></clipPath></defs><g clip-path="url(#__lottie_element_2)"><g clip-path="url(#__lottie_element_5)" transform="matrix(1,0,0,1,0,0)" opacity="1" style="display: block;"><g transform="matrix(1,0,0,1,334.66839599609375,215)" opacity="1" style="display: block;"><g opacity="1" transform="matrix(1,0,0,1,0,0)"><path class="primary" fill="rgb(74,179,252)" fill-opacity="1" d=" M-79.07099914550781,-122.19499969482422 C-79.07099914550781,-122.19499969482422 16.940000534057617,0 16.940000534057617,0 C16.940000534057617,0 -79.07099914550781,122.19599914550781 -79.07099914550781,122.19599914550781 C-80.09500122070312,123.4990005493164 -79.86799621582031,125.38400268554688 -78.56500244140625,126.40799713134766 C-78.56500244140625,126.40799713134766 -43.96699905395508,153.5919952392578 -43.96699905395508,153.5919952392578 C-42.66400146484375,154.61599731445312 -40.77899932861328,154.38999938964844 -39.755001068115234,153.08700561523438 C-39.755001068115234,153.08700561523438 79.07099914550781,1.8530000448226929 79.07099914550781,1.8530000448226929 C79.9260025024414,0.7649999856948853 79.9260025024414,-0.7649999856948853 79.07099914550781,-1.8530000448226929 C79.07099914550781,-1.8530000448226929 -39.755001068115234,-153.08700561523438 -39.755001068115234,-153.08700561523438 C-40.77899932861328,-154.38999938964844 -42.66400146484375,-154.61599731445312 -43.96699905395508,-153.5919952392578 C-43.96699905395508,-153.5919952392578 -78.56500244140625,-126.40799713134766 -78.56500244140625,-126.40799713134766 C-79.86799621582031,-125.38400268554688 -80.09500122070312,-123.49800109863281 -79.07099914550781,-122.19499969482422z"></path></g></g><g transform="matrix(1,0,0,1,319.9043884277344,215)" opacity="0.5" style="mix-blend-mode: multiply; display: block;"><g opacity="1" transform="matrix(1,0,0,1,0,0)"><path class="primary" fill="rgb(74,179,252)" fill-opacity="1" d=" M-64.30699920654297,-122.19499969482422 C-65.33100128173828,-123.49800109863281 -65.1050033569336,-125.38400268554688 -63.801998138427734,-126.40799713134766 C-63.801998138427734,-126.40799713134766 -45.60499954223633,-140.7050018310547 -45.60499954223633,-140.7050018310547 C-45.60499954223633,-140.7050018310547 64.9489974975586,0 64.9489974975586,0 C64.9489974975586,0 -45.60499954223633,140.7050018310547 -45.60499954223633,140.7050018310547 C-45.60499954223633,140.7050018310547 -63.801998138427734,126.40799713134766 -63.801998138427734,126.40799713134766 C-65.1050033569336,125.38400268554688 -65.33100128173828,123.4990005493164 -64.30699920654297,122.19599914550781 C-64.30699920654297,122.19599914550781 31.702999114990234,0 31.702999114990234,0 C31.702999114990234,0 -64.30699920654297,-122.19499969482422 -64.30699920654297,-122.19499969482422z"></path></g></g><g transform="matrix(1,0,0,1,95.33261108398438,214.99899291992188)" opacity="1" style="display: block;"><g opacity="1" transform="matrix(1,0,0,1,0,0)"><path class="primary" fill="rgb(74,179,252)" fill-opacity="1" d=" M79.07099914550781,-122.19499969482422 C79.07099914550781,-122.19499969482422 -16.940000534057617,0 -16.940000534057617,0 C-16.940000534057617,0 79.07099914550781,122.19599914550781 79.07099914550781,122.19599914550781 C80.09500122070312,123.4990005493164 79.86799621582031,125.38400268554688 78.56500244140625,126.40799713134766 C78.56500244140625,126.40799713134766 43.96699905395508,153.5919952392578 43.96699905395508,153.5919952392578 C42.66400146484375,154.61599731445312 40.77899932861328,154.38999938964844 39.755001068115234,153.08700561523438 C39.755001068115234,153.08700561523438 -79.07099914550781,1.8530000448226929 -79.07099914550781,1.8530000448226929 C-79.9260025024414,0.7649999856948853 -79.9260025024414,-0.7649999856948853 -79.07099914550781,-1.8530000448226929 C-79.07099914550781,-1.8530000448226929 39.755001068115234,-153.08700561523438 39.755001068115234,-153.08700561523438 C40.77899932861328,-154.38999938964844 42.66400146484375,-154.61599731445312 43.96699905395508,-153.5919952392578 C43.96699905395508,-153.5919952392578 78.56500244140625,-126.40799713134766 78.56500244140625,-126.40799713134766 C79.86799621582031,-125.38400268554688 80.09500122070312,-123.49800109863281 79.07099914550781,-122.19499969482422z"></path></g></g><g transform="matrix(1,0,0,1,85.66061401367188,214.99899291992188)" opacity="0.5" style="mix-blend-mode: multiply; display: block;"><g opacity="1" transform="matrix(1,0,0,1,0,0)"><path class="primary" fill="rgb(74,179,252)" fill-opacity="1" d=" M-40.51300048828125,0 C-40.51300048828125,0 70.04100036621094,140.7050018310547 70.04100036621094,140.7050018310547 C70.04100036621094,140.7050018310547 53.638999938964844,153.5919952392578 53.638999938964844,153.5919952392578 C52.33599853515625,154.61599731445312 50.45100021362305,154.38999938964844 49.426998138427734,153.08700561523438 C49.426998138427734,153.08700561523438 -69.39900207519531,1.8530000448226929 -69.39900207519531,1.8530000448226929 C-70.25399780273438,0.7649999856948853 -70.25399780273438,-0.7649999856948853 -69.39900207519531,-1.8530000448226929 C-69.39900207519531,-1.8530000448226929 49.426998138427734,-153.08700561523438 49.426998138427734,-153.08700561523438 C50.45100021362305,-154.38999938964844 52.33599853515625,-154.61599731445312 53.638999938964844,-153.5919952392578 C53.638999938964844,-153.5919952392578 70.04100036621094,-140.7050018310547 70.04100036621094,-140.7050018310547 C70.04100036621094,-140.7050018310547 -40.51300048828125,0 -40.51300048828125,0z"></path></g></g><g transform="matrix(1,0,0,1,150,189.92822265625)" opacity="1" style="display: block;"><g opacity="1" transform="matrix(1,0,0,1,0,0)"><path class="primary" fill="rgb(74,179,252)" fill-opacity="1" d=" M0,-22.5 C12.417750358581543,-22.5 22.5,-12.417750358581543 22.5,0 C22.5,12.417750358581543 12.417750358581543,22.5 0,22.5 C-12.417750358581543,22.5 -22.5,12.417750358581543 -22.5,0 C-22.5,-12.417750358581543 -12.417750358581543,-22.5 0,-22.5z"></path></g></g><g transform="matrix(1,0,0,1,148.8040008544922,191.1242218017578)" opacity="0.5" style="mix-blend-mode: multiply; display: block;"><g opacity="1" transform="matrix(1,0,0,1,0,0)"><path class="primary" fill="rgb(74,179,252)" fill-opacity="1" d=" M11.196000099182129,11.303999900817871 C14.831000328063965,11.303999900817871 18.264999389648438,10.442000389099121 21.304000854492188,8.91100025177002 C17.601999282836914,16.26099967956543 9.98799991607666,21.304000854492188 1.1959999799728394,21.304000854492188 C-11.229999542236328,21.304000854492188 -21.304000854492188,11.229999542236328 -21.304000854492188,-1.1959999799728394 C-21.304000854492188,-9.98799991607666 -16.26099967956543,-17.601999282836914 -8.91100025177002,-21.304000854492188 C-10.442000389099121,-18.264999389648438 -11.303999900817871,-14.831000328063965 -11.303999900817871,-11.196000099182129 C-11.303999900817871,1.2300000190734863 -1.2300000190734863,11.303999900817871 11.196000099182129,11.303999900817871z"></path></g></g><g transform="matrix(1,0,0,1,215,212.85763549804688)" opacity="1" style="display: block;"><g opacity="1" transform="matrix(1,0,0,1,0,0)"><path class="primary" fill="rgb(74,179,252)" fill-opacity="1" d=" M0,-22.5 C12.417750358581543,-22.5 22.5,-12.417750358581543 22.5,0 C22.5,12.417750358581543 12.417750358581543,22.5 0,22.5 C-12.417750358581543,22.5 -22.5,12.417750358581543 -22.5,0 C-22.5,-12.417750358581543 -12.417750358581543,-22.5 0,-22.5z"></path></g></g><g transform="matrix(1,0,0,1,213.8040008544922,214.0536346435547)" opacity="0.5" style="mix-blend-mode: multiply; display: block;"><g opacity="1" transform="matrix(1,0,0,1,0,0)"><path class="primary" fill="rgb(74,179,252)" fill-opacity="1" d=" M11.196000099182129,11.303999900817871 C14.831000328063965,11.303999900817871 18.264999389648438,10.442000389099121 21.304000854492188,8.91100025177002 C17.601999282836914,16.26099967956543 9.98799991607666,21.304000854492188 1.1959999799728394,21.304000854492188 C-11.229999542236328,21.304000854492188 -21.304000854492188,11.229999542236328 -21.304000854492188,-1.1959999799728394 C-21.304000854492188,-9.98799991607666 -16.26099967956543,-17.601999282836914 -8.91100025177002,-21.304000854492188 C-10.442000389099121,-18.264999389648438 -11.303999900817871,-14.831000328063965 -11.303999900817871,-11.196000099182129 C-11.303999900817871,1.2300000190734863 -1.2300000190734863,11.303999900817871 11.196000099182129,11.303999900817871z"></path></g></g><g transform="matrix(1,0,0,1,280,215)" opacity="1" style="display: block;"><g opacity="1" transform="matrix(1,0,0,1,0,0)"><path class="primary" fill="rgb(74,179,252)" fill-opacity="1" d=" M0,-22.5 C12.417750358581543,-22.5 22.5,-12.417750358581543 22.5,0 C22.5,12.417750358581543 12.417750358581543,22.5 0,22.5 C-12.417750358581543,22.5 -22.5,12.417750358581543 -22.5,0 C-22.5,-12.417750358581543 -12.417750358581543,-22.5 0,-22.5z"></path></g></g><g transform="matrix(1,0,0,1,278.8039855957031,216.1959991455078)" opacity="0.5" style="mix-blend-mode: multiply; display: block;"><g opacity="1" transform="matrix(1,0,0,1,0,0)"><path class="primary" fill="rgb(74,179,252)" fill-opacity="1" d=" M11.196000099182129,11.303999900817871 C14.831000328063965,11.303999900817871 18.264999389648438,10.442000389099121 21.304000854492188,8.91100025177002 C17.601999282836914,16.26099967956543 9.98799991607666,21.304000854492188 1.1959999799728394,21.304000854492188 C-11.229999542236328,21.304000854492188 -21.304000854492188,11.229999542236328 -21.304000854492188,-1.1959999799728394 C-21.304000854492188,-9.98799991607666 -16.26099967956543,-17.601999282836914 -8.91100025177002,-21.304000854492188 C-10.442000389099121,-18.264999389648438 -11.303999900817871,-14.831000328063965 -11.303999900817871,-11.196000099182129 C-11.303999900817871,1.2300000190734863 -1.2300000190734863,11.303999900817871 11.196000099182129,11.303999900817871z"></path></g></g></g></g></svg>